<svg width="1024" height="1024" viewBox="0 0 1024 1024" fill="none" xmlns="http://www.w3.org/2000/svg">
<g clip-path="url(#clip0_60_53)">
<g clip-path="url(#clip1_60_53)">
<path d="M512 0C410.736 0 311.746 30.0283 227.548 86.2875C143.35 142.547 77.726 222.51 38.9739 316.066C0.221842 409.622 -9.91746 512.568 9.83817 611.886C29.5938 711.204 78.357 802.434 149.962 874.038C221.566 945.643 312.796 994.406 412.114 1014.16C511.432 1033.92 614.378 1023.78 707.934 985.026C801.49 946.274 881.453 880.65 937.712 796.452C993.972 712.254 1024 613.264 1024 512C1023.86 376.253 969.868 246.107 873.88 150.12C777.893 54.1321 647.747 0.143351 512 0ZM765.932 284.505L608.394 599.581C606.465 603.379 603.379 606.465 599.582 608.394L284.505 765.932C280.806 767.791 276.615 768.436 272.529 767.777C268.442 767.118 264.667 765.187 261.74 762.26C258.813 759.333 256.882 755.558 256.223 751.471C255.564 747.385 256.209 743.194 258.068 739.495L415.606 424.418C417.535 420.621 420.621 417.535 424.419 415.606L739.495 258.068C743.194 256.209 747.385 255.564 751.472 256.223C755.558 256.882 759.333 258.812 762.261 261.739C765.188 264.666 767.118 268.442 767.777 272.528C768.436 276.615 767.791 280.806 765.932 284.505Z" fill="#1C1917"/>
</g>
</g>
<defs>
<clipPath id="clip0_60_53">
<rect width="1024" height="1024" fill="white"/>
</clipPath>
<clipPath id="clip1_60_53">
<rect width="1024" height="1024" fill="white"/>
</clipPath>
</defs>
</svg>
